<svg height="48" viewBox="0 0 20 48" width="20" xmlns="http://www.w3.org/2000/svg"><ellipse cx="10" cy="27" fill="#c4c4c4" opacity=".3" rx="9" ry="5"/><path d="m10 32c5 0 9-2.2 9-5s-4-5-9-5-9 2.2-9 5 4 5 9 5z" fill="#bfbfbf" fill-rule="evenodd" opacity=".3"/><path d="m19.25 10.4a13.0663 13.0663 0 0 1 -1.4607 5.2235 41.5281 41.5281 0 0 1 -3.2459 5.5483c-1.1829 1.7369-2.3662 3.2784-3.2541 4.3859-.4438.5536-.8135.9984-1.0721 1.3046-.0844.1-.157.1852-.2164.2545-.06-.07-.1325-.1564-.2173-.2578-.2587-.3088-.6284-.7571-1.0723-1.3147-.8879-1.1154-2.0714-2.6664-3.2543-4.41a42.2677 42.2677 0 0 1 -3.2463-5.5535 12.978 12.978 0 0 1 -1.4606-5.1808 9.4659 9.4659 0 0 1 9.25-9.65 9.4659 9.4659 0 0 1 9.25 9.65z" fill="#f79640" stroke="#ba7334" stroke-width=".5"/><path d="m13.55 10a3.55 3.55 0 1 1 -3.55-3.55 3.5484 3.5484 0 0 1 3.55 3.55z" fill="#fff" stroke="#ba7334" stroke-width=".5"/><path d="m0 0h20v48h-20z" fill="none"/></svg>